<svg xmlns="http://www.w3.org/2000/svg" width="49.5" height="45" viewBox="0 0 16.5 15"><path id="Repeat_Two_Arrows_Interface_Symbol" data-name="Repeat Two Arrows Interface Symbol"  d="M407.05,651.5a3.358,3.358,0,0,1-.3-1.5,4.513,4.513,0,0,1,4.5-4.5h7.5v-3l4.5,3.75-4.5,3.75v-3h-7.5a3.009,3.009,0,0,0-3,3,0.951,0.951,0,0,0,.075.45Zm14.625-1.95c0,0.15.075,0.375,0.075,0.525a3.009,3.009,0,0,1-3,3h-7.5V650l-4.5,3.75,4.5,3.75v-3h7.5a4.513,4.513,0,0,0,4.5-4.5,3.358,3.358,0,0,0-.3-1.5Z" transform="translate(-406.75 -642.5)"/></svg>
